<svg width="24" height="24" viewBox="0 0 24 24" fill="none" xmlns="http://www.w3.org/2000/svg">
<path d="M6.57129 2.75C7.31425 2.75 7.83235 2.75039 8.2373 2.7793C8.63514 2.80772 8.86691 2.86069 9.04297 2.9375C9.56314 3.16451 9.97812 3.58039 10.2051 4.10059C10.2818 4.27661 10.3349 4.50764 10.3633 4.90527C10.3922 5.31025 10.3926 5.82822 10.3926 6.57129C10.3926 7.31426 10.3922 7.83235 10.3633 8.2373C10.3349 8.63514 10.2819 8.86691 10.2051 9.04297C9.9781 9.56299 9.56299 9.9781 9.04297 10.2051C8.86691 10.2819 8.63514 10.3349 8.2373 10.3633C7.83235 10.3922 7.31426 10.3926 6.57129 10.3926C5.82822 10.3926 5.31025 10.3922 4.90527 10.3633C4.50764 10.3349 4.27661 10.2818 4.10059 10.2051C3.58039 9.97812 3.16451 9.56314 2.9375 9.04297C2.86069 8.86691 2.80772 8.63514 2.7793 8.2373C2.75039 7.83235 2.75 7.31425 2.75 6.57129C2.75 5.82823 2.75037 5.31025 2.7793 4.90527C2.8077 4.50772 2.86077 4.2766 2.9375 4.10059C3.16449 3.58032 3.58032 3.16449 4.10059 2.9375C4.2766 2.86077 4.50772 2.8077 4.90527 2.7793C5.31025 2.75037 5.82823 2.75 6.57129 2.75Z" stroke="white" stroke-width="1.5"/>
<path d="M6.57129 13.6074C7.31425 13.6074 7.83235 13.6078 8.2373 13.6367C8.63514 13.6651 8.86691 13.7181 9.04297 13.7949C9.56314 14.0219 9.97812 14.4378 10.2051 14.958C10.2818 15.134 10.3349 15.3651 10.3633 15.7627C10.3922 16.1677 10.3926 16.6856 10.3926 17.4287C10.3926 18.1717 10.3922 18.6898 10.3633 19.0947C10.3349 19.4926 10.2819 19.7243 10.2051 19.9004C9.9781 20.4204 9.56299 20.8355 9.04297 21.0625C8.86691 21.1393 8.63514 21.1923 8.2373 21.2207C7.83235 21.2496 7.31426 21.25 6.57129 21.25C5.82822 21.25 5.31025 21.2496 4.90527 21.2207C4.50764 21.1923 4.27661 21.1392 4.10059 21.0625C3.58039 20.8355 3.16451 20.4206 2.9375 19.9004C2.86069 19.7243 2.80772 19.4926 2.7793 19.0947C2.75039 18.6898 2.75 18.1717 2.75 17.4287C2.75 16.6857 2.75037 16.1677 2.7793 15.7627C2.8077 15.3651 2.86077 15.134 2.9375 14.958C3.16449 14.4377 3.58032 14.0219 4.10059 13.7949C4.2766 13.7182 4.50772 13.6651 4.90527 13.6367C5.31025 13.6078 5.82823 13.6074 6.57129 13.6074Z" stroke="white" stroke-width="1.5"/>
<path d="M17.4287 2.75C18.1717 2.75 18.6898 2.75039 19.0947 2.7793C19.4926 2.80772 19.7243 2.86069 19.9004 2.9375C20.4206 3.16451 20.8355 3.58039 21.0625 4.10059C21.1392 4.27661 21.1923 4.50764 21.2207 4.90527C21.2496 5.31025 21.25 5.82822 21.25 6.57129C21.25 7.31426 21.2496 7.83235 21.2207 8.2373C21.1923 8.63514 21.1393 8.86691 21.0625 9.04297C20.8355 9.56299 20.4204 9.9781 19.9004 10.2051C19.7243 10.2819 19.4926 10.3349 19.0947 10.3633C18.6898 10.3922 18.1717 10.3926 17.4287 10.3926C16.6856 10.3926 16.1677 10.3922 15.7627 10.3633C15.3651 10.3349 15.134 10.2818 14.958 10.2051C14.4378 9.97812 14.0219 9.56314 13.7949 9.04297C13.7181 8.86691 13.6651 8.63514 13.6367 8.2373C13.6078 7.83235 13.6074 7.31425 13.6074 6.57129C13.6074 5.82823 13.6078 5.31025 13.6367 4.90527C13.6651 4.50772 13.7182 4.2766 13.7949 4.10059C14.0219 3.58032 14.4377 3.16449 14.958 2.9375C15.134 2.86077 15.3651 2.8077 15.7627 2.7793C16.1677 2.75037 16.6857 2.75 17.4287 2.75Z" stroke="white" stroke-width="1.5"/>
<path d="M17.4287 13.6074C18.1717 13.6074 18.6898 13.6078 19.0947 13.6367C19.4926 13.6651 19.7243 13.7181 19.9004 13.7949C20.4206 14.0219 20.8355 14.4378 21.0625 14.958C21.1392 15.134 21.1923 15.3651 21.2207 15.7627C21.2496 16.1677 21.25 16.6856 21.25 17.4287C21.25 18.1717 21.2496 18.6898 21.2207 19.0947C21.1923 19.4926 21.1393 19.7243 21.0625 19.9004C20.8355 20.4204 20.4204 20.8355 19.9004 21.0625C19.7243 21.1393 19.4926 21.1923 19.0947 21.2207C18.6898 21.2496 18.1717 21.25 17.4287 21.25C16.6856 21.25 16.1677 21.2496 15.7627 21.2207C15.3651 21.1923 15.134 21.1392 14.958 21.0625C14.4378 20.8355 14.0219 20.4206 13.7949 19.9004C13.7181 19.7243 13.6651 19.4926 13.6367 19.0947C13.6078 18.6898 13.6074 18.1717 13.6074 17.4287C13.6074 16.6857 13.6078 16.1677 13.6367 15.7627C13.6651 15.3651 13.7182 15.134 13.7949 14.958C14.0219 14.4377 14.4377 14.0219 14.958 13.7949C15.134 13.7182 15.3651 13.6651 15.7627 13.6367C16.1677 13.6078 16.6857 13.6074 17.4287 13.6074Z" stroke="white" stroke-width="1.5"/>
</svg>
