<svg width="24" height="24" viewBox="0 0 24 24" fill="none" xmlns="http://www.w3.org/2000/svg">
<path d="M9.89453 6.64111H13.1206M9.89453 10.328H15.8857M9.89453 14.0149H15.8857" stroke="white" stroke-opacity="0.56" stroke-width="1.2" stroke-linecap="round" stroke-linejoin="round"/>
<path fill-rule="evenodd" clip-rule="evenodd" d="M20.8725 14.8097C20.9537 14.0112 20.9537 13.0112 20.9537 11.7492L20.9537 9.14679C20.9539 8.18086 20.954 7.55793 20.786 6.96838C20.6938 6.64517 20.5648 6.33364 20.4014 6.03995C20.1034 5.50424 19.6628 5.06386 18.9796 4.38099L18.8359 4.23725C18.153 3.5541 17.7126 3.11354 17.1769 2.81549C16.8833 2.65209 16.5717 2.52305 16.2485 2.43092C15.659 2.26287 15.036 2.263 14.0701 2.2632L12.8886 2.26321V2.26521C12.0265 2.27038 11.3008 2.2889 10.6885 2.35525C9.81728 2.44964 9.0938 2.64741 8.47174 3.09937C8.10006 3.36941 7.7732 3.69628 7.50315 4.06796C7.21534 4.4641 7.03061 4.90136 6.91001 5.39171L6.15431 5.5942C3.8187 6.22003 2.43265 8.62075 3.05847 10.9564L5.08623 18.524C5.71205 20.8596 8.11277 22.2457 10.4484 21.6199L15.7903 20.1885C16.8105 19.9151 17.6495 19.3031 18.2188 18.5058C18.4988 18.4082 18.7607 18.2815 19.0079 18.1163C19.4859 17.7969 19.8964 17.3865 20.2158 16.9084C20.615 16.3109 20.7892 15.6279 20.8725 14.8097ZM14.0812 3.64582L13.9685 3.64579C12.5844 3.64581 11.5991 3.64726 10.8374 3.72979C10.0838 3.81143 9.6315 3.96572 9.2844 4.2179C9.03009 4.40267 8.80645 4.62631 8.62168 4.88062C8.36951 5.22772 8.21521 5.68006 8.13357 6.43363C8.05052 7.20014 8.04958 8.19302 8.04958 9.59091V11.7109C8.04958 13.0198 8.05041 13.9494 8.1237 14.6698C8.1958 15.3787 8.33229 15.8078 8.55443 16.1403C8.77298 16.4674 9.05382 16.7482 9.38091 16.9668C9.71335 17.1889 10.1425 17.3254 10.8514 17.3975C11.5718 17.4708 12.5014 17.4716 13.8103 17.4716C15.1192 17.4716 16.0489 17.4708 16.7693 17.3975C17.4781 17.3254 17.9073 17.1889 18.2398 16.9668C18.5669 16.7482 18.8477 16.4674 19.0662 16.1403C19.2884 15.8078 19.4249 15.3787 19.497 14.6698C19.5703 13.9494 19.5711 13.0198 19.5711 11.7109V9.40656C19.5711 8.95251 19.5696 8.68152 19.5435 8.48729C19.5316 8.39829 19.5175 8.35371 19.5092 8.33364C19.5073 8.32899 19.5058 8.32593 19.5049 8.32415L19.5036 8.32191L19.5014 8.32064C19.4996 8.31971 19.4965 8.31822 19.4919 8.3163C19.4718 8.30804 19.4272 8.29395 19.3382 8.28198C19.144 8.25587 18.873 8.2544 18.4189 8.2544L17.456 8.25441C17.057 8.25445 16.6913 8.2545 16.3937 8.21449C16.0661 8.17044 15.7198 8.0668 15.4349 7.78196C15.1501 7.49713 15.0465 7.15081 15.0024 6.82316C14.9624 6.52562 14.9624 6.15985 14.9625 5.76092L14.9625 4.6136C14.9625 4.25258 14.9615 4.03735 14.9445 3.88013C14.9345 3.78765 14.9217 3.74976 14.917 3.73878C14.9036 3.72071 14.8876 3.7047 14.8695 3.69127C14.8585 3.68654 14.8206 3.6738 14.7282 3.66378C14.5839 3.64815 14.3908 3.64606 14.0812 3.64582ZM15.4589 18.8458C14.9757 18.8542 14.4411 18.8542 13.8487 18.8542H13.772C12.51 18.8542 11.51 18.8542 10.7115 18.773C9.89329 18.6898 9.21026 18.5156 8.61278 18.1163C8.13473 17.7969 7.72428 17.3865 7.40485 16.9084C7.00563 16.3109 6.83144 15.6279 6.74821 14.8097C6.66698 14.0112 6.66698 13.0112 6.66699 11.7492V9.54989C6.66699 8.49804 6.66698 7.61668 6.71074 6.87646L6.51215 6.92967C4.9141 7.35787 3.96575 9.00047 4.39395 10.5985L6.4217 18.1662C6.84989 19.7642 8.49249 20.7126 10.0905 20.2844L15.4324 18.853C15.4413 18.8507 15.4501 18.8483 15.4589 18.8458ZM19.1932 6.71214C19.2254 6.76991 19.2556 6.8287 19.2838 6.88839C19.0375 6.87175 18.7581 6.87178 18.4602 6.87182L17.4972 6.87182C17.0432 6.87182 16.7722 6.87035 16.578 6.84424C16.489 6.83227 16.4444 6.81818 16.4243 6.80992C16.4197 6.808 16.4166 6.80651 16.4148 6.80558L16.4126 6.80431L16.4113 6.80207C16.4104 6.80029 16.4089 6.79724 16.407 6.79258C16.3987 6.77251 16.3846 6.72793 16.3727 6.63893C16.3465 6.44471 16.3451 6.17372 16.3451 5.71967L16.3451 4.58107C16.3451 4.34895 16.3451 4.13078 16.3349 3.93616C16.3924 3.9635 16.4491 3.99268 16.5048 4.02367C16.8509 4.21626 17.1506 4.50725 17.9301 5.28676C18.7096 6.06627 19.0006 6.36597 19.1932 6.71214Z" fill="white" fill-opacity="0.56"/>
</svg>
