<svg width="16" height="16" viewBox="0 0 16 16" fill="none" xmlns="http://www.w3.org/2000/svg">
<path fill-rule="evenodd" clip-rule="evenodd" d="M5.70871 12.6665H2.89182C2.39928 12.6665 2 12.2672 2 11.7747V11.1927C2 10.8557 2.13385 10.5326 2.3721 10.2944C2.98758 9.67892 3.33335 8.84411 3.33335 7.9737V5.99974C3.33335 3.42238 5.42272 1.33301 8.00008 1.33301C10.5775 1.33301 12.6668 3.42238 12.6668 5.99974V7.9737C12.6668 8.84411 13.0126 9.67892 13.6281 10.2944C13.8663 10.5326 14.0002 10.8557 14.0002 11.1927V11.7747C14.0002 12.2672 13.6009 12.6665 13.1084 12.6665H10.2914C10.2914 12.9042 10.2837 13.3574 10.0447 13.7914C9.64904 14.5096 8.88249 14.9999 8.00008 14.9999C7.1176 14.9999 6.35109 14.5096 5.95546 13.7914C5.71641 13.3574 5.70871 12.9042 5.70871 12.6665ZM12.921 11.0015C12.9717 11.0522 13.0002 11.121 13.0002 11.1927V11.6665H3.00001V11.1927C3.00001 11.121 3.0285 11.0522 3.07921 11.0015C3.88223 10.1985 4.33337 9.10931 4.33337 7.9737V5.99974C4.33337 3.97466 5.97501 2.33302 8.00008 2.33302C10.0252 2.33302 11.6668 3.97466 11.6668 5.99974V7.9737C11.6668 9.10931 12.1179 10.1985 12.921 11.0015ZM9.29143 12.6665H6.70873C6.70873 12.8878 6.7246 13.115 6.8314 13.3089C6.90587 13.4442 7.0032 13.5651 7.11814 13.6665C7.35314 13.874 7.66194 13.9998 8.00008 13.9998C8.33822 13.9998 8.64696 13.874 8.88203 13.6665C8.99696 13.5651 9.09423 13.4442 9.16877 13.3089C9.27557 13.115 9.29143 12.8878 9.29143 12.6665Z" fill="white"/>
</svg>
